<svg xmlns="http://www.w3.org/2000/svg" width="1280" height="210" viewBox="0 0 1280 210" role="img" aria-label="coming soon."><defs><linearGradient id="accent"><stop stop-color="#7b61b5"/><stop offset="1" stop-color="#368b9a"/></linearGradient><linearGradient id="wash"><stop stop-color="#7b61b5" stop-opacity=".085"/><stop offset="1" stop-color="#368b9a" stop-opacity=".035"/></linearGradient><pattern id="grid" width="36" height="36" patternUnits="userSpaceOnUse"><path d="M36 0H0V36" fill="none" stroke="#e3e6f0" stroke-width=".7"/></pattern></defs><style>.signal{animation:pulse 6s ease-in-out infinite}@keyframes pulse{0%,100%{opacity:.2}50%{opacity:.7}}@media(prefers-reduced-motion:reduce){*{animation:none!important}}</style><rect x="1" y="1" width="1278" height="208" rx="12" fill="#f8f9fd"/><rect x="1" y="1" width="1278" height="208" rx="12" fill="url(#wash)"/><rect x="1" y="1" width="1278" height="208" rx="12" fill="url(#grid)"/><rect x="1" y="1" width="1278" height="208" rx="12" fill="none" stroke="url(#accent)" stroke-opacity=".24"/><path d="M25 56V25H94M1186 25H1255V56M25 154V185H94M1186 185H1255V154" fill="none" stroke="url(#accent)" stroke-width="1.6" opacity=".55"/><path d="M0 100H48L60 88H130M1150 122H1220L1232 110H1280" fill="none" stroke="url(#accent)" opacity=".2"/><path d="M551 144H729" stroke="url(#accent)" opacity=".3"/><text x="640" y="113" text-anchor="middle" fill="#75829a" font-family="ui-monospace,SFMono-Regular,Consolas,monospace" font-size="28" letter-spacing="1.5">coming soon.</text><circle class="signal" cx="640" cy="144" r="2.5" fill="#368b9a"/></svg>
